<?xml version="1.0" standalone="no"?>
<!DOCTYPE svg PUBLIC "-//W3C//DTD SVG 20010904//EN"
 "http://www.w3.org/TR/2001/REC-SVG-20010904/DTD/svg10.dtd">
<svg version="1.0" xmlns="http://www.w3.org/2000/svg"
 width="300.000000pt" height="300.000000pt" viewBox="0 0 300.000000 300.000000"
 preserveAspectRatio="xMidYMid meet">
<metadata>
Created by potrace 1.11, written by Peter Selinger 2001-2013
</metadata>
<g transform="translate(0.000000,300.000000) scale(0.100000,-0.100000)"
fill="#000000" stroke="none">
<path d="M0 1500 l0 -1500 1500 0 1500 0 0 1500 0 1500 -1500 0 -1500 0 0
-1500z m2336 1167 c-38 -24 -81 -66 -67 -67 8 0 -40 -36 -107 -81 -67 -44
-122 -86 -122 -93 0 -15 29 -41 89 -81 70 -47 179 -154 222 -216 57 -84 60
-106 5 -29 -26 36 -50 64 -54 63 -13 -5 -42 8 -42 18 0 6 -4 7 -10 4 -5 -3
-10 -1 -10 4 0 6 -9 11 -20 11 -11 0 -20 5 -20 11 0 18 -22 33 -114 79 -49 24
-109 59 -133 77 -24 18 -49 33 -56 33 -7 0 -23 7 -35 16 -28 20 -39 13 -16
-10 25 -26 37 -93 21 -116 -8 -11 -17 -17 -20 -14 -3 4 -4 -4 -2 -17 3 -18 -4
-29 -28 -44 -17 -11 -45 -39 -61 -62 -27 -40 -30 -50 -30 -130 -1 -72 3 -95
21 -129 36 -67 154 -151 243 -174 65 -16 87 -29 100 -60 14 -33 5 -141 -12
-151 -7 -4 -26 -34 -43 -66 -17 -32 -37 -57 -43 -56 -6 2 -18 -10 -27 -27 -8
-16 -27 -41 -41 -55 -22 -23 -31 -25 -68 -20 -32 5 -45 3 -55 -9 -8 -9 -20
-16 -27 -16 -8 0 -14 -4 -14 -9 0 -15 -102 -41 -149 -38 -48 4 -87 33 -97 72
-6 26 -44 42 -44 19 0 -19 -32 -84 -42 -84 -4 0 -8 -8 -8 -18 0 -29 -11 -34
-32 -15 -17 15 -21 15 -29 3 -8 -12 -10 -10 -6 8 5 19 1 22 -30 22 -19 0 -41
7 -49 15 -9 8 -28 15 -43 15 -15 0 -32 5 -39 12 -9 9 -12 7 -12 -10 0 -27 -8
-28 -26 -4 -12 15 -15 15 -24 2 -8 -13 -10 -13 -10 2 0 11 -5 15 -15 12 -9 -4
-15 0 -15 8 0 8 -9 24 -20 35 -10 12 -33 50 -50 85 l-30 63 5 -42 c3 -26 1
-43 -5 -43 -5 0 -10 7 -10 15 0 8 -7 15 -16 15 -13 0 -14 3 -5 14 9 11 8 17
-2 28 -8 7 -20 31 -27 53 -7 22 -15 45 -19 50 -3 6 -6 16 -7 23 -3 20 -11 25
-24 17 -6 -4 -9 -13 -6 -21 3 -8 0 -11 -10 -7 -11 4 -14 19 -13 57 2 72 20 96
69 96 64 0 139 20 169 46 16 13 32 24 36 24 22 0 108 80 125 115 28 57 28 181
1 233 -24 46 -64 88 -91 97 -18 6 -25 23 -21 48 1 5 -7 6 -18 2 -16 -5 -19 -2
-15 22 8 68 18 94 37 108 18 12 18 15 5 15 -9 0 -20 -4 -23 -10 -3 -5 -13 -10
-22 -10 -9 0 -32 -12 -52 -27 -41 -32 -41 -32 -158 -93 -47 -25 -88 -51 -90
-57 -3 -7 -9 -10 -14 -7 -5 3 -6 -2 -3 -10 3 -9 1 -16 -5 -16 -6 0 -26 -16
-46 -35 -19 -20 -35 -34 -35 -31 0 2 -21 -16 -47 -40 -53 -48 -66 -43 -32 13
59 96 159 191 324 310 19 14 19 15 -20 48 -22 19 -74 55 -115 80 -101 62 -169
108 -169 117 -1 4 7 5 17 1 31 -11 226 -103 262 -124 19 -11 54 -30 77 -41
l43 -22 67 22 c107 35 166 44 342 49 181 5 273 -4 420 -43 l94 -24 79 41 c44
22 121 65 171 96 84 51 124 72 137 72 3 0 -4 -6 -14 -12z m-1226 -293 c0 -16
-84 -104 -98 -103 -11 0 -12 2 -4 6 6 2 12 10 12 17 0 16 64 86 79 86 6 0 11
-3 11 -6z m810 -14 c22 -12 65 -78 56 -87 -3 -4 -7 -4 -9 -2 -2 2 -20 25 -41
52 -39 47 -40 55 -6 37z m-894 -289 c0 -33 6 -47 25 -62 13 -10 32 -16 41 -13
25 7 39 -28 32 -78 -13 -84 -119 -151 -203 -128 -32 8 -101 66 -101 85 0 2 12
15 27 29 18 17 27 35 27 58 1 27 5 33 24 34 27 2 48 27 57 66 7 29 42 61 60
55 5 -2 10 -23 11 -46z m994 27 c11 -12 20 -29 20 -39 0 -27 34 -61 61 -61 22
0 24 -4 21 -32 -3 -24 3 -41 23 -64 32 -39 23 -62 -35 -92 -57 -29 -116 -26
-172 9 -54 34 -59 41 -69 95 -9 48 17 121 33 93 14 -25 57 2 64 40 3 17 3 36
-1 42 -3 6 -3 16 0 21 10 16 33 11 55 -12z m780 -108 c0 -15 -7 -20 -25 -20
-27 0 -28 1 -19 24 9 24 44 20 44 -4z m-2512 -379 c3 -16 -1 -22 -10 -19 -7 3
-15 15 -16 27 -3 16 1 22 10 19 7 -3 15 -15 16 -27z m1880 -3 c-2 -6 8 -14 22
-18 21 -5 25 -11 22 -38 -5 -43 -52 -94 -70 -75 -9 9 -9 13 -2 13 8 0 9 11 5
33 -5 24 -4 28 4 17 8 -12 11 -7 10 20 0 29 -2 31 -9 15 -8 -18 -9 -17 -9 7
-1 22 5 30 27 37 1 1 1 -4 0 -11z m-1356 -40 c0 -7 2 -17 2 -23 1 -5 9 -25 19
-44 22 -44 22 -45 -8 -19 -14 12 -25 26 -25 31 0 4 -7 15 -15 23 -8 8 -12 21
-9 29 7 18 33 20 36 3z m1874 -165 c-38 -40 -86 -114 -135 -208 -29 -55 -63
-111 -77 -126 -13 -14 -24 -30 -24 -37 0 -6 -11 -28 -25 -48 -14 -20 -25 -35
-25 -33 0 24 31 143 45 168 43 84 161 238 209 273 44 32 58 36 32 11z m-2243
-90 c105 -132 155 -219 138 -236 -6 -6 -11 -19 -11 -30 0 -10 -4 -15 -10 -12
-5 3 -10 17 -10 30 0 14 -8 29 -19 34 -10 6 -39 52 -64 103 -25 51 -59 110
-76 132 -36 44 -36 46 -16 46 8 0 38 -30 68 -67z m-38 -153 c3 -5 2 -10 -4
-10 -5 0 -13 5 -16 10 -3 6 -2 10 4 10 5 0 13 -4 16 -10z m365 -117 c14 -10
59 -37 100 -60 90 -52 85 -56 -8 -9 -76 38 -155 95 -189 135 -39 46 -24 45 25
-3 26 -25 58 -54 72 -63z m1857 91 c-3 -3 -12 -4 -19 -1 -8 3 -5 6 6 6 11 1
17 -2 13 -5z m-359 -78 c-82 -72 -304 -164 -331 -137 -12 12 -1 17 62 24 47 6
229 90 271 125 40 34 38 24 -2 -12z m-680 -86 c90 -17 115 -41 55 -53 -16 -3
-41 -18 -57 -32 -28 -24 -29 -26 -11 -45 16 -17 16 -20 2 -20 -15 0 -117 130
-117 149 0 21 22 22 128 1z m-887 -150 c5 0 9 -5 9 -10 0 -16 -47 18 -66 48
-15 24 -13 23 16 -5 18 -18 36 -33 41 -33z m54 -30 c3 -5 32 -17 63 -26 72
-20 87 -34 34 -30 -41 3 -155 66 -120 66 9 0 20 -4 23 -10z m1545 -7 c0 -5
-28 -23 -61 -41 -58 -32 -65 -33 -128 -27 -93 9 -105 21 -22 21 70 0 194 30
185 45 -3 5 2 9 10 9 9 0 16 -3 16 -7z m598 -466 c4 -20 -71 -72 -93 -63 -18
7 -19 16 -1 38 16 21 67 49 81 45 6 -2 11 -11 13 -20z m-2666 -144 c23 -20 23
-33 1 -33 -28 0 -47 16 -40 34 8 20 16 20 39 -1z m2446 -20 c5 -17 -26 -29
-40 -15 -6 6 -7 15 -3 22 9 14 37 9 43 -7z"/>
<path d="M1432 1700 c-78 -70 -131 -100 -179 -100 -24 0 -54 6 -66 14 -33 21
-67 29 -67 16 0 -19 52 -80 81 -96 55 -28 106 -18 209 41 87 50 96 53 115 40
11 -8 45 -29 75 -47 49 -29 63 -33 129 -33 73 0 73 0 107 40 30 36 43 65 29
65 -3 0 -23 -9 -45 -20 -76 -39 -131 -24 -255 70 -36 27 -71 50 -78 50 -7 -1
-32 -18 -55 -40z"/>
<path d="M1990 1425 c0 -14 2 -25 4 -25 2 0 6 11 8 25 3 14 1 25 -3 25 -5 0
-9 -11 -9 -25z"/>
</g>
</svg>
